<svg xmlns="http://www.w3.org/2000/svg" viewBox="0 0 200 200" width="100%" height="100%">
  <ellipse cx="100" cy="165" rx="55" ry="8" fill="#2a3b2c" opacity="0.4"/>

  <path d="M 60 90 Q 15 50 10 90 Q 30 115 50 110 Z" fill="#5c8a47" stroke="#3a5c29" stroke-width="3" stroke-linejoin="round"/>
  
  <path d="M 140 90 Q 185 50 190 90 Q 170 115 150 110 Z" fill="#5c8a47" stroke="#3a5c29" stroke-width="3" stroke-linejoin="round"/>

  <ellipse cx="100" cy="100" rx="45" ry="50" fill="#6da354" stroke="#3a5c29" stroke-width="3"/>

  <ellipse cx="78" cy="88" rx="10" ry="8" fill="#fcdb03" stroke="#a33427" stroke-width="2"/>
  <ellipse cx="122" cy="88" rx="10" ry="8" fill="#fcdb03" stroke="#a33427" stroke-width="2"/>
  
  <ellipse cx="78" cy="88" rx="2" ry="5" fill="#000"/>
  <ellipse cx="122" cy="88" rx="2" ry="5" fill="#000"/>

  <path d="M 60 78 L 92 85" stroke="#2e4a21" stroke-width="5" stroke-linecap="round"/>
  <path d="M 140 78 L 108 85" stroke="#2e4a21" stroke-width="5" stroke-linecap="round"/>

  <path d="M 95 95 Q 105 120 112 112 Q 105 105 102 95" fill="#5c8a47" stroke="#3a5c29" stroke-width="2.5" stroke-linecap="round"/>

  <path d="M 70 125 Q 100 145 130 125 Q 100 135 70 125 Z" fill="#1f3316" stroke="#2e4a21" stroke-width="1"/>
  
  <polygon points="80,127 85,135 90,128" fill="#f4f5d3"/>
  <polygon points="110,128 115,135 120,127" fill="#f4f5d3"/>
  <polygon points="90,129 95,122 100,130" fill="#f4f5d3"/>
  <polygon points="100,130 105,122 110,129" fill="#f4f5d3"/>

  <circle cx="85" cy="65" r="2.5" fill="#466e33"/>
  <circle cx="118" cy="70" r="1.5" fill="#466e33"/>
  <circle cx="75" cy="108" r="2" fill="#466e33"/>
  
  <path d="M 95 50 Q 100 35 108 45" stroke="#2e4a21" stroke-width="2" fill="none" stroke-linecap="round"/>
  <path d="M 102 50 Q 110 38 115 48" stroke="#2e4a21" stroke-width="1.5" fill="none" stroke-linecap="round"/>
</svg>
